<svg width="160" height="31" viewBox="0 0 160 31" fill="none" xmlns="http://www.w3.org/2000/svg">
<g filter="url(#filter0_d_54_214)">
<path d="M16.0493 17.024H9.76128L8.75328 20H4.45728L10.5533 3.152H15.3053L21.4013 20H17.0573L16.0493 17.024ZM14.9933 13.856L12.9053 7.688L10.8413 13.856H14.9933ZM35.0166 22.88L32.8566 19.976C32.2166 20.104 31.5926 20.168 30.9846 20.168C29.4006 20.168 27.9446 19.8 26.6166 19.064C25.3046 18.328 24.2566 17.304 23.4726 15.992C22.7046 14.664 22.3206 13.176 22.3206 11.528C22.3206 9.88 22.7046 8.4 23.4726 7.088C24.2566 5.776 25.3046 4.752 26.6166 4.016C27.9446 3.28 29.4006 2.912 30.9846 2.912C32.5686 2.912 34.0166 3.28 35.3286 4.016C36.6566 4.752 37.6966 5.776 38.4486 7.088C39.2166 8.4 39.6006 9.88 39.6006 11.528C39.6006 12.968 39.3046 14.288 38.7126 15.488C38.1366 16.672 37.3286 17.656 36.2886 18.44L39.9846 22.88H35.0166ZM26.5206 11.528C26.5206 13.016 26.9206 14.208 27.7206 15.104C28.5366 15.984 29.6246 16.424 30.9846 16.424C32.3286 16.424 33.4006 15.976 34.2006 15.08C35.0166 14.184 35.4246 13 35.4246 11.528C35.4246 10.04 35.0166 8.856 34.2006 7.976C33.4006 7.08 32.3286 6.632 30.9846 6.632C29.6246 6.632 28.5366 7.072 27.7206 7.952C26.9206 8.832 26.5206 10.024 26.5206 11.528ZM45.7227 3.152V13.232C45.7227 14.24 45.9707 15.016 46.4667 15.56C46.9627 16.104 47.6907 16.376 48.6507 16.376C49.6107 16.376 50.3467 16.104 50.8587 15.56C51.3707 15.016 51.6267 14.24 51.6267 13.232V3.152H55.7307V13.208C55.7307 14.712 55.4107 15.984 54.7707 17.024C54.1307 18.064 53.2667 18.848 52.1787 19.376C51.1067 19.904 49.9067 20.168 48.5787 20.168C47.2507 20.168 46.0587 19.912 45.0027 19.4C43.9627 18.872 43.1387 18.088 42.5307 17.048C41.9227 15.992 41.6187 14.712 41.6187 13.208V3.152H45.7227ZM68.8605 17.024H62.5725L61.5645 20H57.2685L63.3645 3.152H68.1165L74.2125 20H69.8685L68.8605 17.024ZM67.8045 13.856L65.7165 7.688L63.6525 13.856H67.8045ZM87.9478 3.152V6.44H83.4838V20H79.3798V6.44H74.9158V3.152H87.9478ZM98.3595 20L94.8555 13.64H93.8715V20H89.7675V3.152H96.6555C97.9835 3.152 99.1115 3.384 100.04 3.848C100.984 4.312 101.688 4.952 102.152 5.768C102.616 6.568 102.848 7.464 102.848 8.456C102.848 9.576 102.528 10.576 101.888 11.456C101.264 12.336 100.336 12.96 99.1035 13.328L102.992 20H98.3595ZM93.8715 10.736H96.4155C97.1675 10.736 97.7275 10.552 98.0955 10.184C98.4795 9.816 98.6715 9.296 98.6715 8.624C98.6715 7.984 98.4795 7.48 98.0955 7.112C97.7275 6.744 97.1675 6.56 96.4155 6.56H93.8715V10.736ZM115.672 17.024H109.384L108.376 20H104.08L110.176 3.152H114.928L121.024 20H116.68L115.672 17.024ZM114.616 13.856L112.528 7.688L110.464 13.856H114.616ZM121.943 11.552C121.943 9.888 122.303 8.408 123.023 7.112C123.743 5.8 124.743 4.784 126.023 4.064C127.319 3.328 128.783 2.96 130.415 2.96C132.415 2.96 134.127 3.488 135.551 4.544C136.975 5.6 137.927 7.04 138.407 8.864H133.895C133.559 8.16 133.079 7.624 132.455 7.256C131.847 6.888 131.151 6.704 130.367 6.704C129.103 6.704 128.079 7.144 127.295 8.024C126.511 8.904 126.119 10.08 126.119 11.552C126.119 13.024 126.511 14.2 127.295 15.08C128.079 15.96 129.103 16.4 130.367 16.4C131.151 16.4 131.847 16.216 132.455 15.848C133.079 15.48 133.559 14.944 133.895 14.24H138.407C137.927 16.064 136.975 17.504 135.551 18.56C134.127 19.6 132.415 20.12 130.415 20.12C128.783 20.12 127.319 19.76 126.023 19.04C124.743 18.304 123.743 17.288 123.023 15.992C122.303 14.696 121.943 13.216 121.943 11.552ZM150.448 20L144.784 12.56V20H140.68V3.152H144.784V10.544L150.4 3.152H155.224L148.696 11.408L155.464 20H150.448Z" fill="#323F47"/>
</g>
<defs>
<filter id="filter0_d_54_214" x="-1" y="0" width="163" height="32" filterUnits="userSpaceOnUse" color-interpolation-filters="sRGB">
<feFlood flood-opacity="0" result="BackgroundImageFix"/>
<feColorMatrix in="SourceAlpha" type="matrix" values="0 0 0 0 0 0 0 0 0 0 0 0 0 0 0 0 0 0 127 0" result="hardAlpha"/>
<feOffset dy="4"/>
<feGaussianBlur stdDeviation="2"/>
<feComposite in2="hardAlpha" operator="out"/>
<feColorMatrix type="matrix" values="0 0 0 0 0 0 0 0 0 0 0 0 0 0 0 0 0 0 0.25 0"/>
<feBlend mode="normal" in2="BackgroundImageFix" result="effect1_dropShadow_54_214"/>
<feBlend mode="normal" in="SourceGraphic" in2="effect1_dropShadow_54_214" result="shape"/>
</filter>
</defs>
</svg>