<?xml version="1.0" encoding="utf-8"?>
<!-- Generator: Adobe Illustrator 26.5.0, SVG Export Plug-In . SVG Version: 6.00 Build 0)  -->
<svg version="1.1" id="Слой_1" xmlns="http://www.w3.org/2000/svg" xmlns:xlink="http://www.w3.org/1999/xlink" x="0px" y="0px"
	 viewBox="0 0 32 32" style="enable-background:new 0 0 32 32;" xml:space="preserve">
<style type="text/css">
	.st0{display:none;fill:#9BE1A0;}
	.st1{fill:#9BE1A0;}
	.st2{fill:#323F47;}
</style>
<path class="st0" d="M27.3,32H0V4.7C0,2.1,2.1,0,4.7,0H32v27.3C32,29.9,29.9,32,27.3,32z"/>
<g>
	<path class="st1" d="M29.5,26.8c0.2-1.3,0.7-2.5,0.6-3.8c0-0.4,0.2-0.7,0.5-0.9c0-0.6,0-1.3,0-2c0.2-3.1,0.1-6.3,0.6-9.4h-2.5
		c-0.8,0.5-1.7,0.7-2.9,0.7c-0.9,0-1.6-0.2-2.3-0.5c-0.4,0-0.8,0-1.2,0.1c-0.2,0.1-0.5,0.1-0.8,0.1c0,0,0,0,0,0c0,0-0.1,0-0.1,0
		c0,0,0,0,0,0c-1.4,0.1-2.9,0-3.9-1.1c-0.5-0.6-0.7-1.3-0.9-2c-0.1-0.6-0.2-1.3-0.6-1.7c-0.2-0.3-0.3-0.6-0.3-0.8
		c-0.1-0.1-0.2-0.2-0.3-0.3c-0.3-0.2-0.6-0.4-1-0.6c-0.2-0.1-0.3-0.3-0.4-0.5H6.7c-2.9,0-5.3,2.3-5.3,5.1v22.1h25.6
		c0.9,0,1.7-0.2,2.4-0.6C29.3,29.6,29.3,28.2,29.5,26.8z"/>
	<g>
		<path class="st2" d="M13.1,0.2c0.4,0.2,0.4,0.4,0.4,0.7c0,0.9,0,1.8,0,2.7c0,0.2,0,0.4,0.2,0.4c2.7,1.5,4,3.7,4.2,6.2
			c0,0.2,0,0.2,0,0.4c0.2,0,0.4,0,0.5,0c4,0,8.2,0,12.2,0c0.7,0,0.9,0.2,0.9,0.7c-0.4,4-0.7,7.9-1.1,11.9c-0.2,2.7-0.5,5.5-0.7,8.2
			c0,0.2-0.2,0.4-0.4,0.5c-8.6,0-17,0-25.6,0c0,0,0,0-0.2,0c-2-0.4-3.1-1.5-3.1-3.1c0-1.5,0-2.7,0-4.2c0-0.7,0-1.5,0.9-2
			c-0.7-0.5-0.9-1.1-0.9-1.8c0-1.5,0-2.9,0-4.4c0-0.2,0-0.4,0-0.5c0.2-0.5,0.4-1.1,0.9-1.5c-0.7-0.4-0.9-1.1-0.9-1.6
			c0-0.7,0-1.6,0-2.4c0.2-2.6,1.5-4.6,4-6c0.2-0.2,0.4-0.2,0.2-0.4c0-0.9,0-1.8,0-2.7c0-0.4,0-0.5,0.4-0.7
			C7.8,0.2,10.5,0.2,13.1,0.2z M16.6,10.7c0-2.6-1.1-4.4-3.7-5.9c-0.2,0-0.4-0.2-0.5-0.2c-2.2,0-4.4,0-6.6,0c-0.2,0-0.4,0-0.4,0.2
			c-2,1.1-3.3,2.6-3.7,4.6c-0.2,1.1,0,2,0,3.1c0,0.7,0.5,1.1,1.5,1.1c2.2,0,4.2,0,6.4,0c0.2,0,0.2,0,0.4,0c0.4,0,0.5,0.2,0.5,0.5
			c0,0.2-0.2,0.5-0.5,0.5c-0.2,0-0.2,0-0.4,0c-2,0-4,0-6.2,0c-0.5,0-1.1,0.2-1.3,0.5C2,15.6,1.8,16,1.8,16.3c0,1.6,0,3.1,0,4.8
			c0,0.7,0.5,1.1,1.5,1.1c2.4,0,4.8,0,6.9,0c0.2,0,0.2,0,0.4,0c0.4,0,0.5,0.2,0.5,0.5c0,0.2-0.2,0.4-0.5,0.5c-0.2,0-0.2,0-0.4,0
			c-2.4,0-4.6,0-6.9,0c-0.9,0-1.5,0.4-1.5,1.1c0,1.5,0,3.1,0,4.6c0,1.3,1.1,2.2,2.7,2.2c2.9,0,5.7,0,8.6,0c0.2,0,0.4,0,0.4,0
			c-0.2-1.1-0.2-2.2-0.4-3.1c-0.2-2.9-0.5-5.9-0.9-8.8c-0.2-2.6-0.4-4.9-0.7-7.5c0-0.5,0.2-0.7,0.9-0.7C14,10.7,15.3,10.7,16.6,10.7
			z M30.3,11.6c-5.8,0-11.5,0-17.4,0C13.5,18,14,24.4,14.7,31c4.6,0,9.1,0,13.7,0C29.2,24.6,29.7,18.2,30.3,11.6z"/>
		<path class="st2" d="M21.7,29.5c-1.5,0-2.9,0-4.4,0c-0.7,0-0.9-0.2-0.9-0.7c-0.4-3.5-0.5-7-0.9-10.4c-0.2-1.5-0.2-2.9-0.4-4.4
			c0-0.2,0.2-0.4,0.4-0.5c0.2,0,0.5,0,0.7,0c0.4,0.2,0.7,0.4,1.1,0.5c0.9,0.5,1.8,0.5,2.7,0.2c0.4-0.2,0.9-0.4,1.3-0.5
			c1.8-0.9,3.8-0.9,5.7,0c1.5,0.7,1.3,0.5,1.1,1.6c-0.2,2.4-0.4,4.6-0.5,7c-0.2,2-0.4,3.8-0.5,5.9c0,0.4,0,0.5,0,0.9
			c0,0.4-0.2,0.5-0.7,0.5C24.6,29.5,23.1,29.5,21.7,29.5z M21.3,26c0.9,0,1.6-0.5,1.5-1.3c0-0.7-0.7-1.3-1.6-1.3
			c-0.9,0-1.5,0.5-1.5,1.3S20.4,26,21.3,26z M23,21.1c0.7,0,1.3-0.4,1.3-0.9s-0.5-0.9-1.3-0.9c-0.7,0-1.3,0.4-1.3,0.9
			C21.7,20.5,22.2,21.1,23,21.1z M19.7,17.4c0-0.4-0.4-0.7-0.9-0.7s-0.9,0.4-0.9,0.7c0,0.4,0.4,0.7,0.9,0.7
			C19.3,18.2,19.7,17.8,19.7,17.4z"/>
	</g>
</g>
</svg>
