<svg xmlns="http://www.w3.org/2000/svg" aria-hidden="true" style="position:absolute;width:0;height:0;overflow:hidden">
    <defs>
        <symbol id="icon-x" viewBox="0 0 32 32">
            <path stroke-linecap="round" stroke-linejoin="round" stroke-width="3.429" d="M24 8 8 24M8 8l16 16" />
        </symbol>
        <symbol id="icon-upload" viewBox="0 0 32 32">
            <path stroke-linecap="round" stroke-linejoin="round" stroke-width="2.88"
                d="M28 20v5.333A2.668 2.668 0 0 1 25.333 28H6.666a2.668 2.668 0 0 1-2.667-2.667V20M22.666 10.667 15.999 4l-6.667 6.667M16 4v16" />
        </symbol>
        <symbol id="icon-eye" viewBox="0 0 32 32">
            <path stroke-linecap="round" stroke-linejoin="round" stroke-width="2.88"
                d="M1.333 16S6.666 5.333 16 5.333 30.667 16 30.667 16 25.334 26.667 16 26.667 1.333 16 1.333 16z" />
            <path stroke-linecap="round" stroke-linejoin="round" stroke-width="2.88"
                d="M16 20a4 4 0 1 0 0-8 4 4 0 0 0 0 8z" />
        </symbol>
        <symbol id="icon-pie-chart" viewBox="0 0 32 32">
            <path fill="none" stroke="#323f47" stroke-linecap="round" stroke-linejoin="round" stroke-width="2.667"
                d="M22.933 18.667c.369 0 .554 0 .704.082a.713.713 0 0 1 .293.324c.067.157.05.324.016.659a10.665 10.665 0 0 1-12.694 9.397c-2.069-.412-3.97-1.428-5.462-2.919s-2.508-3.392-2.919-5.461a10.666 10.666 0 0 1 9.397-12.694c.334-.034.502-.05.659.016.13.055.257.17.324.293.082.15.082.334.082.704v8.533c0 .373 0 .56.073.703a.67.67 0 0 0 .291.291c.143.073.329.073.703.073h8.533z"
                style="stroke:var(--color1, #323f47)" />
            <path fill="none" stroke="#9be1a0" stroke-linecap="round" stroke-linejoin="round" stroke-width="2.667"
                d="M18.667 3.733c0-.369 0-.554.082-.704a.713.713 0 0 1 .324-.293c.157-.067.324-.05.659-.016a10.67 10.67 0 0 1 9.549 9.549c.033.334.05.502-.016.659a.704.704 0 0 1-.293.324c-.15.082-.334.082-.704.082h-8.533c-.373 0-.56 0-.703-.073a.67.67 0 0 1-.291-.291c-.073-.143-.073-.329-.073-.703V3.734z"
                style="stroke:var(--color2, #9be1a0)" />
        </symbol>
        <symbol id="icon-log-out" viewBox="0 0 32 32">
            <path stroke-linecap="round" stroke-linejoin="round" stroke-width="3"
                d="M12 28H6.667A2.668 2.668 0 0 1 4 25.333V6.666a2.668 2.668 0 0 1 2.667-2.667H12M21.334 22.667 28.001 16l-6.667-6.667M28 16H12" />
        </symbol>
        <symbol id="icon-settings" viewBox="0 0 32 32">
            <path stroke-linecap="round" stroke-linejoin="round" stroke-width="3"
                d="M16 20a4 4 0 1 0 0-8 4 4 0 0 0 0 8z" />
            <path stroke-linecap="round" stroke-linejoin="round" stroke-width="3"
                d="M25.867 20a2.205 2.205 0 0 0 .44 2.427l.08.08a2.672 2.672 0 0 1 .782 1.886 2.672 2.672 0 0 1-1.648 2.465 2.672 2.672 0 0 1-2.907-.579l-.08-.08a2.197 2.197 0 0 0-2.427-.44 2.2 2.2 0 0 0-1.334 2.013v.227a2.668 2.668 0 0 1-5.334 0v-.12a2.196 2.196 0 0 0-1.44-2.013 2.205 2.205 0 0 0-2.427.44l-.08.08a2.672 2.672 0 0 1-1.886.782 2.672 2.672 0 0 1-2.465-1.648 2.672 2.672 0 0 1 .579-2.907l.08-.08a2.197 2.197 0 0 0 .44-2.427 2.2 2.2 0 0 0-2.013-1.334H4a2.668 2.668 0 0 1 0-5.334h.12a2.196 2.196 0 0 0 2.013-1.44 2.2 2.2 0 0 0-.44-2.427l-.08-.08a2.666 2.666 0 0 1 .865-4.352 2.668 2.668 0 0 1 2.908.579l.08.08a2.197 2.197 0 0 0 2.427.44H12a2.2 2.2 0 0 0 1.334-2.013v-.227a2.668 2.668 0 0 1 5.334 0v.12a2.203 2.203 0 0 0 1.334 2.013 2.208 2.208 0 0 0 2.427-.44l.08-.08a2.672 2.672 0 0 1 1.886-.782 2.672 2.672 0 0 1 2.465 1.647 2.668 2.668 0 0 1-.579 2.907l-.08.08a2.197 2.197 0 0 0-.44 2.427v.107a2.2 2.2 0 0 0 2.013 1.334h.227a2.668 2.668 0 0 1 0 5.334h-.12a2.203 2.203 0 0 0-2.013 1.334z" />
        </symbol>
        <symbol id="icon-trash" viewBox="0 0 32 32">
            <path stroke-linecap="round" stroke-linejoin="round" stroke-width="3" d="M12 4h8" />
            <path stroke-linecap="round" stroke-linejoin="round" stroke-width="3.6"
                d="M4 8h24m-2.667 0-.935 14.026c-.14 2.104-.21 3.156-.665 3.954a4.007 4.007 0 0 1-1.731 1.62c-.826.4-1.881.4-3.99.4h-4.025c-2.109 0-3.163 0-3.99-.4a4.001 4.001 0 0 1-1.731-1.62c-.455-.798-.525-1.85-.665-3.954L6.666 8" />
        </symbol>
        <symbol id="icon-edit" viewBox="0 0 32 32">
            <path stroke-linecap="round" stroke-linejoin="round" stroke-width="3.6"
                d="M22.666 4a3.766 3.766 0 0 1 4.109-.817 3.781 3.781 0 0 1 2.041 2.04 3.764 3.764 0 0 1 0 2.886 3.756 3.756 0 0 1-.817 1.223l-18 18-7.333 2 2-7.333 18-18z" />
        </symbol>
        <symbol id="icon-eye-off" viewBox="0 0 32 32">
            <path stroke-linecap="round" stroke-linejoin="round" stroke-width="2.88"
                d="M23.92 23.92A13.43 13.43 0 0 1 16 26.667C6.667 26.667 1.333 16 1.333 16A24.605 24.605 0 0 1 8.08 8.08m5.12-2.427a12.161 12.161 0 0 1 2.8-.32C25.333 5.333 30.667 16 30.667 16a24.646 24.646 0 0 1-2.88 4.253m-8.961-1.426a4.01 4.01 0 0 1-2.855 1.273 3.978 3.978 0 0 1-1.569-.291 3.984 3.984 0 0 1-2.21-2.21 3.995 3.995 0 0 1 .983-4.424M1.333 1.333l29.333 29.333" />
        </symbol>
        <symbol id="icon-arrow-down">
            <path stroke="#fff" stroke-linecap="round" stroke-linejoin="round" stroke-width="2" d="m1 1.5 5 5 5-5" />
        </symbol>
        <symbol id="icon-arrow-up" viewBox="0 0 32 32">
            <path stroke="#fff" stroke-linecap="round" stroke-linejoin="round" stroke-width="2" d="m1 6.5 5-5 5 5" />
        </symbol>
        <symbol id="glass-water" viewBox="0 0 44 45" >
<path d="M37.9056 7.34867C37.7726 6.89785 37.5482 6.48177 37.2473 6.12836C36.9464 5.77495 36.576 5.4924 36.1611 5.29969C35.749 5.09981 35.2988 4.99886 34.8438 5.00434H9.22806C8.77332 4.97782 8.31966 5.07318 7.91078 5.28123C7.48682 5.47608 7.10986 5.7661 6.80711 6.13036C6.50635 6.48316 6.28179 6.89854 6.14847 7.34867C6.01051 7.7953 5.96799 8.26773 6.02386 8.73312L8.94324 34.5762C9.13905 36.3446 9.9579 37.9727 11.2396 39.1541C12.4924 40.334 14.122 40.9916 15.8145 41H28.2752C29.9732 40.9926 31.6087 40.3353 32.8679 39.1541C34.1328 37.9613 34.9416 36.3363 35.1465 34.5762L36.7308 20.0487V19.8272L37.959 8.75158C38.0279 8.28471 38.0098 7.80846 37.9056 7.34867ZM19.9265 35.6837H18.1464C16.9933 35.6172 15.8956 35.1489 15.0312 34.3546C14.1699 33.5498 13.6038 32.4605 13.4291 31.2719L13.0019 28.0969C12.9471 27.6129 13.0771 27.1259 13.3643 26.7402C13.6514 26.3544 14.0728 26.1006 14.5382 26.033C15.0036 25.9654 15.4761 26.0895 15.8543 26.3787C16.2326 26.6678 16.4867 27.0991 16.5621 27.5801L16.9893 30.7182C17.0372 31.0612 17.2013 31.3753 17.4522 31.6042C17.7009 31.8409 18.0227 31.9783 18.36 31.9919H20.1401C20.6122 31.9919 21.065 32.1863 21.3989 32.5325C21.7327 32.8787 21.9202 33.3482 21.9202 33.8378C21.9202 34.3274 21.7327 34.7969 21.3989 35.1431C21.065 35.4892 20.6122 35.6837 20.1401 35.6837H19.9265ZM34.1674 18.6458C30.4114 19.4026 27.2072 19.5503 23.8072 16.7998C19.5883 13.3479 14.4794 14.4555 9.56628 16.2645L8.67622 8.43777C8.65871 8.35881 8.65871 8.27676 8.67622 8.1978C8.70045 8.12024 8.74334 8.05036 8.80083 7.99475C8.84296 7.92662 8.9055 7.87474 8.97884 7.84707C9.04867 7.82655 9.12263 7.82655 9.19246 7.84707H35.0397C35.1064 7.88579 35.1666 7.93569 35.2177 7.99475C35.2711 8.05013 35.3067 8.12212 35.3245 8.1978C35.3516 8.28165 35.3516 8.37238 35.3245 8.45623L34.1674 18.6458Z" />
</symbol>
    </defs>
</svg>